# xmcd
#
# Track frame offsets:
#	150
#	16785
#	33500
#	46823
#	62961
#	77586
#	93560
#	109794
#	119948
#	137332
#	160681
#	176635
#
# Disc length: 2613 seconds
#
# Revision: 0
# Processed by: cddbd v1.5.2PL0 Copyright (c) Steve Scherf et al.
# Submitted via: EasyCDDAExtractor 12.0.0.1
#
DISCID=980a330c
DTITLE=CLAUDE NOUGARO - Légendes de la chanson française
DYEAR=1900
DGENRE=
TTITLE0=Bidonville (live)
TTITLE1=Le chat (live)
TTITLE2=La chienne
TTITLE3=Armstrong (live)
TTITLE4=Jet set
TTITLE5=Dansez sur moi (live)
TTITLE6=Herbie Hancock
TTITLE7=Les chenilles
TTITLE8=Les bas
TTITLE9=Toulouse
TTITLE10=Le cinéma (live)
TTITLE11=Chiffre deux, nombre d'or
EXTD=
EXTT0=
EXTT1=
EXTT2=
EXTT3=
EXTT4=
EXTT5=
EXTT6=
EXTT7=
EXTT8=
EXTT9=
EXTT10=
EXTT11=
PLAYORDER=
